<?xml version="1.0" encoding="UTF-8"?>
<!DOCTYPE svg PUBLIC "-//W3C//DTD SVG 1.1//EN" "http://www.w3.org/Graphics/SVG/1.1/DTD/svg11.dtd">
<!-- Creator: CorelDRAW 2019 (64-Bit) -->
<svg xmlns="http://www.w3.org/2000/svg" xml:space="preserve" width="3.59163in" height="3.59163in" version="1.1" style="shape-rendering:geometricPrecision; text-rendering:geometricPrecision; image-rendering:optimizeQuality; fill-rule:evenodd; clip-rule:evenodd"
viewBox="0 0 3591.2 3591.2"
 xmlns:xlink="http://www.w3.org/1999/xlink"
 xmlns:xodm="http://www.corel.com/coreldraw/odm/2003">
 <defs>
  <style type="text/css">
   <![CDATA[
    .fil0 {fill:black}
   ]]>
  </style>
 </defs>
 <g id="Layer_x0020_1">
  <metadata id="CorelCorpID_0Corel-Layer"/>
  <path class="fil0" d="M1371.22 1226.39c208.59,31.4 412.62,-115.43 471.17,-481.72 58.18,-366.41 -176.45,-732.94 -258.45,-744.3 -82.24,-11.91 -439.03,264.67 -497.14,631.09 -58.18,366.41 75.88,563.53 284.41,594.93zm-551.31 -358.95c68.79,359.81 -74.03,574.57 -281.33,627.14 -207.48,53.06 -400.59,-75.89 -469.81,-435.82 -68.79,-359.81 174.11,-753.8 255.54,-775.21 80.88,-21.04 426.69,224.51 495.6,583.89zm710.18 2488.74l0 0c346.98,176.14 823.94,418.36 1122.86,16.47 429.22,-577.1 -342.1,-1684.35 -913.96,-1851.73 -571.79,-167.32 -1801.02,355 -1736.54,1076.09 44.79,502.45 575.07,555.02 960.79,593.27 117.59,11.66 221.67,21.96 294.59,43.31 72.86,21.28 166.52,68.85 272.2,122.53l0 0 0.06 0.06zm1305.54 -1916.94c-245.18,267.94 -235.55,527.37 -87.05,684.02 148.5,156.71 379.12,152.27 624.73,-115.56 245.18,-267.94 243.76,-733.44 185.83,-795.56 -58.06,-61.7 -478.39,-40.41 -723.5,227.1zm-625.9 32.52c-193.17,-86.13 -289.97,-321 -149.49,-663.29 140.54,-342.35 529.84,-526.26 605.73,-491.46 75.95,34.36 234.88,461.85 93.9,804.08 -140.98,342.16 -356.97,436.87 -550.14,350.68z"/>
 </g>
</svg>
