<?xml version="1.0" encoding="UTF-8"?>
<!DOCTYPE svg PUBLIC "-//W3C//DTD SVG 1.1//EN" "http://www.w3.org/Graphics/SVG/1.1/DTD/svg11.dtd">
<!-- Creator: CorelDRAW 2019 (64-Bit) -->
<svg xmlns="http://www.w3.org/2000/svg" xml:space="preserve" width="5.76828in" height="1.53515in" version="1.1" style="shape-rendering:geometricPrecision; text-rendering:geometricPrecision; image-rendering:optimizeQuality; fill-rule:evenodd; clip-rule:evenodd"
viewBox="0 0 5767.86 1535.04"
 xmlns:xlink="http://www.w3.org/1999/xlink"
 xmlns:xodm="http://www.corel.com/coreldraw/odm/2003">
 <defs>
  <style type="text/css">
   <![CDATA[
    .fil0 {fill:#FF6400;fill-rule:nonzero}
   ]]>
  </style>
 </defs>
 <g id="Layer_x0020_1">
  <metadata id="CorelCorpID_0Corel-Layer"/>
  <path class="fil0" d="M2843.61 1385.84c-55.01,39.9 -121.35,74.25 -199.01,103.11 -77.69,28.87 -170.13,43.31 -277.38,43.31 -206.22,0 -362.63,-49.81 -469.16,-149.51 -106.57,-99.66 -159.83,-238.86 -159.83,-417.6l0 -400.08c0,-177.36 54.65,-315.86 163.95,-415.56 109.3,-99.67 264.3,-149.51 465.04,-149.51 86.62,0 167.37,11.35 242.32,34.02 74.92,22.69 141.26,53.3 199.01,91.77 23.36,15.14 26.81,33.71 10.31,55.69l-158.81 245.4c-8.24,13.76 -18.55,20.62 -30.93,20.62 -8.25,0 -17.2,-2.73 -26.81,-8.24 -31.64,-19.24 -66.35,-33.67 -104.15,-43.31 -37.83,-9.6 -76.65,-14.44 -116.51,-14.44 -75.64,0 -133.38,19.6 -173.24,58.78 -39.89,39.18 -59.8,88.36 -59.8,147.45l0 352.65c0,68.76 19.91,120.99 59.8,156.72 39.87,35.78 94.86,53.62 164.99,53.62 46.72,0 91.41,-6.18 134.05,-18.55 42.6,-12.37 81.79,-29.55 117.55,-51.56 9.6,-5.48 18.56,-8.24 26.81,-8.24 10.99,0 20.62,6.18 28.87,18.55l160.85 245.42c16.51,22 17.18,38.5 2.06,49.49zm-2597.47 -1119.29l0.06 -0.06c68.98,-68.85 142.34,-128.85 217.9,-179.83 -12.41,-42.56 -43.88,-57.79 -105.65,-57.79l-66.21 0c-161.4,0 -292.25,130.85 -292.25,292.26l0 271.23c62.31,-113.5 144.75,-224.34 246.14,-325.81zm995.75 996.49c-117.14,116.13 -246.49,207.42 -377.78,272 164.24,-14.85 314.48,-49.36 448.15,-103.74 99.74,-40.51 121.57,-77.92 121.57,-180.79l0 -225.73c-53.45,82.62 -117.48,162.98 -191.94,238.26zm13.53 -1234.17l66.2 0c84.16,0 112.21,28.06 112.21,115.32l0 644.81c-59.33,136.97 -150.62,274.08 -270.65,395.4 -137.35,136.19 -294.94,235.73 -449.62,293.59 -151.94,56.83 -323.35,52.26 -461.89,-32.12 -167.74,-102.17 -251.67,-284.66 -251.67,-547.59l0 -8.39c48.56,-184.35 159.73,-379.5 324.82,-544.73 46.54,-46.43 95.47,-88.49 145.84,-126.18l0.01 663.72c0,155.85 87.28,233.78 264.94,233.78 71.69,0 140.27,-6.24 205.73,-21.83 15.59,-6.22 21.83,-18.7 21.83,-34.28l0 -739.25c0,-161.41 130.84,-292.26 292.25,-292.26zm3914.4 1033.19c0,88 39.86,131.99 119.61,131.99 34.34,0 66.66,-5.48 96.92,-16.5l0 -435.14c-30.26,-10.99 -63.25,-16.51 -98.99,-16.51 -78.36,0 -117.54,44.02 -117.54,131.99l0 204.16zm216.53 -991.95c0,-27.48 13.73,-41.25 41.26,-41.25l299.02 0c27.48,0 41.23,13.76 41.23,41.25l0 1338.41c0,23.39 -11.01,39.18 -32.99,47.43 -64.63,23.4 -137.49,41.95 -218.61,55.68 -81.14,13.73 -158.78,20.62 -233.03,20.62 -75.62,0 -144.36,-12.05 -206.22,-36.08 -61.87,-24.04 -114.46,-57.04 -157.77,-98.99 -43.3,-41.92 -77.01,-92.45 -101.04,-151.57 -24.08,-59.11 -36.09,-123.75 -36.09,-193.86l0 -183.54c0,-72.85 10.31,-138.17 30.93,-195.92 20.62,-57.74 50.17,-106.88 88.68,-147.45 38.47,-40.53 84.88,-71.82 139.2,-93.83 54.3,-21.97 114.46,-32.99 180.45,-32.99 28.87,0 58.41,2.41 88.67,7.21 30.23,4.84 55.68,10.67 76.31,17.54l0 -352.65zm-1299.01 1433.27c-27.52,0 -41.25,-13.73 -41.25,-41.25l0 -925.96c0,-21.98 9.61,-38.48 28.88,-49.5 118.21,-59.09 250.88,-88.68 398.01,-88.68 28.87,0 58.77,1.74 89.7,5.16 30.93,3.45 64.26,8.6 100.02,15.47 24.74,5.51 37.11,20.62 37.11,45.37l0 228.91c0,28.87 -14.44,41.25 -43.3,37.12 -30.26,-4.13 -61.86,-6.19 -94.88,-6.19 -53.62,0 -98.3,7.57 -134.03,22.69l0 715.61c0,27.51 -13.76,41.25 -41.25,41.25l-299.03 0zm-782.84 -350.59c0,56.4 39.2,84.56 117.56,84.56 15.12,0 30.93,-0.68 47.42,-2.07 16.51,-1.34 30.23,-3.41 41.25,-6.18l0 -140.23c-31.62,-6.87 -61.85,-10.31 -90.73,-10.31 -77,0 -115.5,24.75 -115.5,74.23zm-321.7 -645.49c48.11,-28.87 109.98,-54.29 185.62,-76.3 75.59,-21.98 160.14,-33 253.64,-33 313.47,0 470.18,165.69 470.18,497.01l0 536.18c0,24.75 -11.68,39.89 -35.04,45.38 -67.38,19.26 -140.24,33.32 -218.61,42.27 -78.37,8.93 -149.87,13.4 -214.47,13.4 -174.61,0 -302.82,-31.61 -384.61,-94.86 -81.82,-63.23 -122.7,-153.28 -122.7,-270.16 0,-103.11 37.79,-181.12 113.42,-234.06 75.59,-52.91 186.96,-79.4 334.1,-79.4 30.22,0 57.39,1.03 81.44,3.09 24.04,2.06 45.69,4.48 64.96,7.21l0 -4.12c0,-19.24 -2.06,-37.13 -6.19,-53.62 -4.11,-16.5 -11.32,-30.93 -21.65,-43.31 -10.3,-12.37 -24.74,-21.98 -43.3,-28.87 -18.56,-6.87 -42.98,-10.31 -73.22,-10.31 -39.89,0 -81.8,4.48 -125.78,13.4 -44.03,8.96 -79.77,20.3 -107.24,34.03 -8.26,4.12 -16.52,6.18 -24.76,6.18 -12.38,0 -22.69,-6.86 -30.93,-20.62l-94.86 -200.05c-13.76,-23.36 -13.76,-39.86 0,-49.5z"/>
 </g>
</svg>
